<?xml version="1.0" encoding="UTF-8" standalone="no"?>
<!DOCTYPE svg PUBLIC "-//W3C//DTD SVG 1.1//EN" "http://www.w3.org/Graphics/SVG/1.1/DTD/svg11.dtd">
<!-- Created with Vectornator (http://vectornator.io/) -->
<svg height="100%" stroke-miterlimit="10" style="fill-rule:nonzero;clip-rule:evenodd;stroke-linecap:round;stroke-linejoin:round;" version="1.1" viewBox="0 0 1024 1024" width="100%" xml:space="preserve" xmlns="http://www.w3.org/2000/svg" xmlns:vectornator="http://vectornator.io" xmlns:xlink="http://www.w3.org/1999/xlink">
<defs/>
<g id="Ebene-1" vectornator:layerName="Ebene 1">
<path d="M486.027 1000.38C444.466 982.796 390.137 950.354 349.139 918.642C224.443 822.188 133.172 684.387 96.5394 537.267C81.5981 477.26 77.3668 441.811 75.9615 364.869C74.7851 300.454 82.8431 234.66 101.053 159.997L108.334 130.142L138.742 121.016C169.988 111.639 302.241 72.8096 432.097 34.8872C472.483 23.0932 508.648 13.4435 512.465 13.4435C516.282 13.4435 549.983 22.4784 587.355 33.5209C624.728 44.5635 693.621 64.7927 740.451 78.4746C787.281 92.1566 845.744 109.241 870.368 116.439C894.993 123.638 915.519 129.964 915.982 130.498C918.244 133.108 937.583 228.917 942.678 262.757C947.13 292.331 948.386 312.856 948.116 351.608C947.51 438.312 942.524 479.537 924.123 549.986C875.257 737.069 732.206 907.854 553.532 992.426C532.302 1002.47 513.763 1010.63 512.333 1010.56C510.903 1010.48 499.066 1005.9 486.027 1000.38ZM498.553 781.296C500.926 776.468 502.867 767.702 502.867 761.818C502.867 744.94 506.886 737.513 516.019 737.513C526.718 737.513 543.928 756.554 544.154 768.641C544.206 771.214 546.056 775.635 548.274 778.467C550.492 781.298 552.307 785.704 552.307 788.256C552.307 795.725 555.965 795.991 572.029 789.686C590.172 782.566 596.338 778.665 613.282 763.587C624.344 753.744 627.979 747.649 638.688 720.995C654.172 682.457 654.44 676.455 641.18 665.213C635.677 660.548 629.001 655.512 626.344 654.022C623.687 652.533 611.857 644.153 600.054 635.401L578.595 619.487L526.311 619.122C467.01 618.709 466.538 618.818 437.667 639.658C427.629 646.904 412.989 656.383 405.134 660.723C390.749 668.67 386.336 674.672 379.373 695.758C376.597 704.166 376.846 707.689 380.968 718.303C383.655 725.221 386.659 731.479 387.643 732.208C388.627 732.938 390.895 736.216 392.682 739.493C394.47 742.77 400.835 747.867 406.827 750.819C412.819 753.771 417.722 757.338 417.722 758.746C417.722 760.154 423.123 762.62 429.724 764.225C436.64 765.907 450.891 773.719 463.35 782.658C487.388 799.905 489.447 799.825 498.553 781.296ZM427.074 601.008C434.771 597.656 444.158 594.019 447.934 592.927C451.711 591.836 457.891 588.874 461.668 586.347C465.444 583.82 474.275 579.325 481.292 576.359C492.771 571.505 494.24 569.875 495.953 560.083C499.662 538.886 495.827 529.35 477.207 513.465C455.637 495.065 424.466 474.844 412.93 471.768C398.341 467.879 384.646 472.862 370.706 487.133C361.689 496.365 341.223 542.266 339.546 557.02C339.288 559.284 338.134 564.281 336.982 568.124C335.496 573.079 336.536 578.233 340.558 585.847C347.406 598.808 348.034 599.211 370.806 605.274C392.052 610.931 406.872 609.808 427.074 601.008ZM652.559 606.649C682.46 601.13 696.788 593.966 702.071 581.894C704.781 575.702 705.93 568.127 705.017 562.463C702.968 549.736 688.69 507.091 678.224 482.436C669.823 462.643 669.71 461.843 674.107 453.261C676.595 448.408 680.179 442.647 682.074 440.459C687.923 433.703 714.819 415.35 733.947 405.061C756.429 392.969 775.692 376.884 780.157 366.476C784.058 357.382 780.064 340.843 767.643 314.643C760.817 300.245 759.929 299.442 752.428 300.891C748.046 301.737 736.552 307.036 726.885 312.666C707.439 323.991 693.999 325.929 667.965 321.161C654.611 318.716 652.466 319.061 641.136 325.472C634.363 329.305 626.164 335.912 622.916 340.155C618.635 345.745 615.098 347.653 610.065 347.086C603.602 346.358 603.064 345.198 602.321 330.39C601.543 314.902 601.875 314.05 614.718 298.562C635.456 273.551 640.353 272.04 700.625 272.04C728.572 272.04 753.762 270.957 756.603 269.634C761.263 267.463 761.59 265.153 759.939 246.04C758.746 232.23 756.37 222.448 753.114 217.945C750.367 214.146 747.321 207.847 746.346 203.948C743.243 191.543 730.653 180.401 707.733 169.777C695.515 164.114 676.867 157.62 666.292 155.347C655.717 153.073 644.594 150.184 641.572 148.927C632.416 145.117 613.873 140.752 606.841 140.752C599.237 140.752 578.282 160.519 547.093 197.113C533.712 212.813 525.454 220.321 521.565 220.321C515.554 220.321 499.258 205.483 478.092 180.741C465.867 166.451 447.689 149.018 441.441 145.594C432.862 140.893 366.25 158.821 353.347 169.304C344.395 176.577 343.649 178.388 343.604 192.962C343.552 208.665 339.957 219.621 333.154 224.772C330.57 226.729 316.509 234.584 301.908 242.228C272.099 257.834 265.747 264.15 273.884 270.098C277.904 273.037 283.777 273.41 300.989 271.819C313.075 270.702 335.94 269.55 351.802 269.259C386.24 268.628 394.567 271.791 424.443 296.851C439.211 309.239 444.324 315.438 447.061 324.276C451.019 337.055 451.581 381.671 448.141 409.958C445.096 434.989 446.011 435.744 475.451 432.476C488.264 431.054 514.815 429.899 534.453 429.911C585.769 429.941 615.479 437.913 615.479 451.649C615.479 457.442 602.706 477.59 599.033 477.59C597.952 477.59 593.458 480.873 589.045 484.884C584.633 488.896 576.25 495.758 570.416 500.135C547.137 517.596 542.028 523.977 540.016 538.105C538.963 545.498 538.861 553.856 539.789 556.679C543.046 566.589 590.032 595.415 620.696 606.315C633.278 610.787 630.307 610.756 652.558 606.648L652.559 606.649ZM325.709 381.8C338.654 378.879 358.001 376.834 372.795 376.823C402.297 376.803 403.46 375.706 396.951 354.084C390.396 332.313 385.082 329.509 353.401 331.109C324.432 332.572 323.113 332.168 288.267 311.161C276.374 303.991 268.995 303.601 263.172 309.834C256.264 317.229 247.292 343.262 246.648 357.78C245.272 388.808 266.32 395.203 325.709 381.8Z" fill="#000000" fill-rule="nonzero" opacity="1" stroke="none" vectornator:layerName="path"/>
</g>
</svg>
